<svg xmlns="http://www.w3.org/2000/svg" width="731" height="731" fill="none" overflow="visible" style="display:block" viewBox="0 0 731 731"><path id="Subtract" fill="currentColor" d="M517.48 698a364 364 0 0 1-151.98 33 364 364 0 0 1-151.98-33zm84.73-54a367 367 0 0 1-34.48 26H163.27a367 367 0 0 1-34.48-26zm58.53-63a367 367 0 0 1-20.89 26H91.15a367 367 0 0 1-20.9-26zm35.63-60a364 364 0 0 1-13.55 26H48.18a364 364 0 0 1-13.55-26zm25.5-74a363 363 0 0 1-6.63 25H15.76a363 363 0 0 1-6.64-25zM365.5 0C567.36 0 731 163.64 731 365.5v.5H0v-.5C0 163.64 163.64 0 365.5 0"/></svg>